<mxfile host="app.diagrams.net" modified="2021-04-24T08:18:12.776Z" agent="5.0 (Windows NT 10.0; Win64; x64) AppleWebKit/537.36 (KHTML, like Gecko) Chrome/90.0.4430.72 Safari/537.36 Edg/90.0.818.42" etag="OB2CQFk7lkrXVZ-smvJc" version="14.6.6" type="github">
  <diagram id="Hn3H-dN24jaD0dENia_m" name="Page-1">
    <mxGraphModel dx="1422" dy="762" grid="1" gridSize="10" guides="1" tooltips="1" connect="1" arrows="1" fold="1" page="1" pageScale="1" pageWidth="827" pageHeight="1169" math="0" shadow="0">
      <root>
        <mxCell id="0" />
        <mxCell id="1" parent="0" />
        <mxCell id="gz96YXUICSbOHZwGuNMA-6" style="edgeStyle=none;rounded=0;orthogonalLoop=1;jettySize=auto;html=1;exitX=1;exitY=1;exitDx=0;exitDy=0;entryX=0.5;entryY=0;entryDx=0;entryDy=0;" parent="1" source="gz96YXUICSbOHZwGuNMA-2" target="gz96YXUICSbOHZwGuNMA-5" edge="1">
          <mxGeometry relative="1" as="geometry" />
        </mxCell>
        <mxCell id="gz96YXUICSbOHZwGuNMA-7" style="edgeStyle=none;rounded=0;orthogonalLoop=1;jettySize=auto;html=1;exitX=0;exitY=1;exitDx=0;exitDy=0;entryX=0.5;entryY=0;entryDx=0;entryDy=0;" parent="1" source="gz96YXUICSbOHZwGuNMA-2" target="gz96YXUICSbOHZwGuNMA-4" edge="1">
          <mxGeometry relative="1" as="geometry" />
        </mxCell>
        <mxCell id="gz96YXUICSbOHZwGuNMA-2" value="F(5)" style="rounded=0;whiteSpace=wrap;html=1;" parent="1" vertex="1">
          <mxGeometry x="414" y="230" width="56" height="30" as="geometry" />
        </mxCell>
        <mxCell id="gz96YXUICSbOHZwGuNMA-4" value="F(4)" style="rounded=0;whiteSpace=wrap;html=1;" parent="1" vertex="1">
          <mxGeometry x="360" y="290" width="56" height="30" as="geometry" />
        </mxCell>
        <mxCell id="gz96YXUICSbOHZwGuNMA-5" value="F(3)" style="rounded=0;whiteSpace=wrap;html=1;" parent="1" vertex="1">
          <mxGeometry x="470" y="290" width="56" height="30" as="geometry" />
        </mxCell>
        <mxCell id="gz96YXUICSbOHZwGuNMA-8" style="edgeStyle=none;rounded=0;orthogonalLoop=1;jettySize=auto;html=1;exitX=1;exitY=1;exitDx=0;exitDy=0;entryX=0.5;entryY=0;entryDx=0;entryDy=0;" parent="1" target="gz96YXUICSbOHZwGuNMA-12" edge="1">
          <mxGeometry relative="1" as="geometry">
            <mxPoint x="415" y="320" as="sourcePoint" />
          </mxGeometry>
        </mxCell>
        <mxCell id="gz96YXUICSbOHZwGuNMA-9" style="edgeStyle=none;rounded=0;orthogonalLoop=1;jettySize=auto;html=1;exitX=0;exitY=1;exitDx=0;exitDy=0;entryX=0.5;entryY=0;entryDx=0;entryDy=0;" parent="1" target="gz96YXUICSbOHZwGuNMA-11" edge="1">
          <mxGeometry relative="1" as="geometry">
            <mxPoint x="359" y="320" as="sourcePoint" />
          </mxGeometry>
        </mxCell>
        <mxCell id="gz96YXUICSbOHZwGuNMA-11" value="F(3)" style="rounded=0;whiteSpace=wrap;html=1;" parent="1" vertex="1">
          <mxGeometry x="320" y="350" width="50" height="30" as="geometry" />
        </mxCell>
        <mxCell id="gz96YXUICSbOHZwGuNMA-12" value="F(2)" style="rounded=0;whiteSpace=wrap;html=1;" parent="1" vertex="1">
          <mxGeometry x="410" y="350" width="42" height="30" as="geometry" />
        </mxCell>
      </root>
    </mxGraphModel>
  </diagram>
</mxfile>
